<mxfile host="app.diagrams.net" modified="2020-12-14T13:16:03.144Z" agent="5.0 (Windows)" etag="iao-VReKK6Evw9PlcCKm" version="14.0.0" type="github">
  <diagram id="B7mUpA1huvissRJmOYIc" name="Page-1">
    <mxGraphModel dx="1038" dy="547" grid="1" gridSize="10" guides="1" tooltips="1" connect="1" arrows="1" fold="1" page="1" pageScale="1" pageWidth="1169" pageHeight="827" math="0" shadow="0">
      <root>
        <mxCell id="0" />
        <mxCell id="1" parent="0" />
        <mxCell id="NP0mH-hWLjlgino4Q2RM-1" value="ASSET DISPOSAL" style="swimlane;startSize=23;" parent="1" vertex="1">
          <mxGeometry x="10" y="10" width="1150" height="810" as="geometry" />
        </mxCell>
        <mxCell id="NP0mH-hWLjlgino4Q2RM-2" value="Start" style="rounded=1;whiteSpace=wrap;html=1;" parent="NP0mH-hWLjlgino4Q2RM-1" vertex="1">
          <mxGeometry x="160" y="40" width="100" height="50" as="geometry" />
        </mxCell>
        <mxCell id="NP0mH-hWLjlgino4Q2RM-5" value="Procurement generates items due for disposal and forwards to HoDs for concurrence" style="rounded=0;whiteSpace=wrap;html=1;" parent="NP0mH-hWLjlgino4Q2RM-1" vertex="1">
          <mxGeometry x="130.5" y="157" width="159" height="60" as="geometry" />
        </mxCell>
        <mxCell id="NP0mH-hWLjlgino4Q2RM-4" value="" style="edgeStyle=orthogonalEdgeStyle;rounded=0;orthogonalLoop=1;jettySize=auto;html=1;entryX=0.5;entryY=0;entryDx=0;entryDy=0;" parent="NP0mH-hWLjlgino4Q2RM-1" source="NP0mH-hWLjlgino4Q2RM-2" target="NP0mH-hWLjlgino4Q2RM-5" edge="1">
          <mxGeometry relative="1" as="geometry">
            <mxPoint x="210" y="165" as="targetPoint" />
          </mxGeometry>
        </mxCell>
        <mxCell id="NP0mH-hWLjlgino4Q2RM-6" value="HoDs receive the list and updates or concurs with the list and forwards it to procurement" style="whiteSpace=wrap;html=1;rounded=0;" parent="NP0mH-hWLjlgino4Q2RM-1" vertex="1">
          <mxGeometry x="120" y="280" width="180" height="60" as="geometry" />
        </mxCell>
        <mxCell id="NP0mH-hWLjlgino4Q2RM-7" value="" style="edgeStyle=orthogonalEdgeStyle;rounded=0;orthogonalLoop=1;jettySize=auto;html=1;" parent="NP0mH-hWLjlgino4Q2RM-1" source="NP0mH-hWLjlgino4Q2RM-5" target="NP0mH-hWLjlgino4Q2RM-6" edge="1">
          <mxGeometry relative="1" as="geometry" />
        </mxCell>
        <mxCell id="NP0mH-hWLjlgino4Q2RM-8" value="HoD procurement consolidates departmental disposal plans into council&#39;s annual disposal plan and proposes members of a disposal committee" style="whiteSpace=wrap;html=1;rounded=0;" parent="NP0mH-hWLjlgino4Q2RM-1" vertex="1">
          <mxGeometry x="120" y="399" width="180" height="83.5" as="geometry" />
        </mxCell>
        <mxCell id="NP0mH-hWLjlgino4Q2RM-9" value="" style="edgeStyle=orthogonalEdgeStyle;rounded=0;orthogonalLoop=1;jettySize=auto;html=1;" parent="NP0mH-hWLjlgino4Q2RM-1" source="NP0mH-hWLjlgino4Q2RM-6" target="NP0mH-hWLjlgino4Q2RM-8" edge="1">
          <mxGeometry relative="1" as="geometry" />
        </mxCell>
        <mxCell id="NP0mH-hWLjlgino4Q2RM-10" value="CEO appoints members of the disposal committee" style="whiteSpace=wrap;html=1;rounded=0;" parent="NP0mH-hWLjlgino4Q2RM-1" vertex="1">
          <mxGeometry x="140" y="550" width="140" height="64.25" as="geometry" />
        </mxCell>
        <mxCell id="NP0mH-hWLjlgino4Q2RM-11" value="" style="edgeStyle=orthogonalEdgeStyle;rounded=0;orthogonalLoop=1;jettySize=auto;html=1;" parent="NP0mH-hWLjlgino4Q2RM-1" source="NP0mH-hWLjlgino4Q2RM-8" target="NP0mH-hWLjlgino4Q2RM-10" edge="1">
          <mxGeometry relative="1" as="geometry" />
        </mxCell>
        <mxCell id="NP0mH-hWLjlgino4Q2RM-15" value="CEO presents proposed disposal plan to the Finance and Governance committee" style="whiteSpace=wrap;html=1;rounded=0;" parent="NP0mH-hWLjlgino4Q2RM-1" vertex="1">
          <mxGeometry x="446" y="668.19" width="140" height="80" as="geometry" />
        </mxCell>
        <mxCell id="NP0mH-hWLjlgino4Q2RM-20" value="&lt;div&gt;F&amp;amp;G&lt;br&gt;&lt;/div&gt;&lt;div&gt;concurs?&lt;/div&gt;" style="rhombus;whiteSpace=wrap;html=1;" parent="NP0mH-hWLjlgino4Q2RM-1" vertex="1">
          <mxGeometry x="476" y="520" width="80" height="80" as="geometry" />
        </mxCell>
        <mxCell id="NP0mH-hWLjlgino4Q2RM-18" value="" style="edgeStyle=orthogonalEdgeStyle;rounded=0;orthogonalLoop=1;jettySize=auto;html=1;" parent="NP0mH-hWLjlgino4Q2RM-1" source="NP0mH-hWLjlgino4Q2RM-15" target="NP0mH-hWLjlgino4Q2RM-20" edge="1">
          <mxGeometry relative="1" as="geometry">
            <mxPoint x="516" y="578.19" as="targetPoint" />
          </mxGeometry>
        </mxCell>
        <mxCell id="NP0mH-hWLjlgino4Q2RM-21" value="Board discusses proposed plan" style="whiteSpace=wrap;html=1;" parent="NP0mH-hWLjlgino4Q2RM-1" vertex="1">
          <mxGeometry x="451" y="390" width="130" height="60" as="geometry" />
        </mxCell>
        <mxCell id="NP0mH-hWLjlgino4Q2RM-22" value="" style="edgeStyle=orthogonalEdgeStyle;rounded=0;orthogonalLoop=1;jettySize=auto;html=1;" parent="NP0mH-hWLjlgino4Q2RM-1" source="NP0mH-hWLjlgino4Q2RM-20" target="NP0mH-hWLjlgino4Q2RM-21" edge="1">
          <mxGeometry relative="1" as="geometry" />
        </mxCell>
        <mxCell id="NP0mH-hWLjlgino4Q2RM-23" value="yes" style="text;html=1;strokeColor=none;fillColor=none;align=center;verticalAlign=middle;whiteSpace=wrap;rounded=0;" parent="NP0mH-hWLjlgino4Q2RM-1" vertex="1">
          <mxGeometry x="511" y="483" width="40" height="20" as="geometry" />
        </mxCell>
        <mxCell id="NP0mH-hWLjlgino4Q2RM-28" value="Comments for the comments" style="shape=note;whiteSpace=wrap;html=1;backgroundOutline=1;darkOpacity=0.05;" parent="NP0mH-hWLjlgino4Q2RM-1" vertex="1">
          <mxGeometry x="621" y="510" width="80" height="100" as="geometry" />
        </mxCell>
        <mxCell id="NP0mH-hWLjlgino4Q2RM-25" value="" style="edgeStyle=orthogonalEdgeStyle;rounded=0;orthogonalLoop=1;jettySize=auto;html=1;entryX=0;entryY=0.5;entryDx=0;entryDy=0;entryPerimeter=0;" parent="NP0mH-hWLjlgino4Q2RM-1" source="NP0mH-hWLjlgino4Q2RM-20" target="NP0mH-hWLjlgino4Q2RM-28" edge="1">
          <mxGeometry relative="1" as="geometry">
            <mxPoint x="616" y="560" as="targetPoint" />
          </mxGeometry>
        </mxCell>
        <mxCell id="NP0mH-hWLjlgino4Q2RM-32" value="Board chair and CEO approves the disposal plan" style="whiteSpace=wrap;html=1;" parent="NP0mH-hWLjlgino4Q2RM-1" vertex="1">
          <mxGeometry x="456" y="140" width="120" height="60" as="geometry" />
        </mxCell>
        <mxCell id="NP0mH-hWLjlgino4Q2RM-34" value="yes" style="text;html=1;strokeColor=none;fillColor=none;align=center;verticalAlign=middle;whiteSpace=wrap;rounded=0;" parent="NP0mH-hWLjlgino4Q2RM-1" vertex="1">
          <mxGeometry x="516" y="217" width="40" height="20" as="geometry" />
        </mxCell>
        <mxCell id="NP0mH-hWLjlgino4Q2RM-37" value="Board Comments" style="shape=note;whiteSpace=wrap;html=1;backgroundOutline=1;darkOpacity=0.05;" parent="NP0mH-hWLjlgino4Q2RM-1" vertex="1">
          <mxGeometry x="331" y="236" width="80" height="100" as="geometry" />
        </mxCell>
        <mxCell id="NP0mH-hWLjlgino4Q2RM-39" value="" style="edgeStyle=orthogonalEdgeStyle;rounded=0;orthogonalLoop=1;jettySize=auto;html=1;entryX=0;entryY=0.5;entryDx=0;entryDy=0;" parent="NP0mH-hWLjlgino4Q2RM-1" source="NP0mH-hWLjlgino4Q2RM-37" target="NP0mH-hWLjlgino4Q2RM-15" edge="1">
          <mxGeometry relative="1" as="geometry">
            <mxPoint x="371" y="436" as="targetPoint" />
            <Array as="points">
              <mxPoint x="371" y="708" />
            </Array>
          </mxGeometry>
        </mxCell>
        <mxCell id="NP0mH-hWLjlgino4Q2RM-46" value="&lt;div&gt;CEO&lt;/div&gt;&lt;div&gt;Approves?&lt;/div&gt;" style="rhombus;whiteSpace=wrap;html=1;" parent="NP0mH-hWLjlgino4Q2RM-1" vertex="1">
          <mxGeometry x="878.5" y="370" width="120" height="80" as="geometry" />
        </mxCell>
        <mxCell id="NP0mH-hWLjlgino4Q2RM-48" value="HoD procurement initiates the disposal of all items in plan based on recommended methods and forward report to stores" style="whiteSpace=wrap;html=1;" parent="NP0mH-hWLjlgino4Q2RM-1" vertex="1">
          <mxGeometry x="853.5" y="503" width="170" height="84" as="geometry" />
        </mxCell>
        <mxCell id="NP0mH-hWLjlgino4Q2RM-49" value="" style="edgeStyle=orthogonalEdgeStyle;rounded=0;orthogonalLoop=1;jettySize=auto;html=1;" parent="NP0mH-hWLjlgino4Q2RM-1" source="NP0mH-hWLjlgino4Q2RM-46" target="NP0mH-hWLjlgino4Q2RM-48" edge="1">
          <mxGeometry relative="1" as="geometry" />
        </mxCell>
        <mxCell id="NP0mH-hWLjlgino4Q2RM-51" value="Stores in charge expunges disposed item from the asset register" style="whiteSpace=wrap;html=1;" parent="NP0mH-hWLjlgino4Q2RM-1" vertex="1">
          <mxGeometry x="873.5" y="630" width="130" height="60" as="geometry" />
        </mxCell>
        <mxCell id="NP0mH-hWLjlgino4Q2RM-52" value="" style="edgeStyle=orthogonalEdgeStyle;rounded=0;orthogonalLoop=1;jettySize=auto;html=1;" parent="NP0mH-hWLjlgino4Q2RM-1" source="NP0mH-hWLjlgino4Q2RM-48" target="NP0mH-hWLjlgino4Q2RM-51" edge="1">
          <mxGeometry relative="1" as="geometry" />
        </mxCell>
        <mxCell id="NP0mH-hWLjlgino4Q2RM-44" value="HoD prorement forwards to CEO for approval" style="whiteSpace=wrap;html=1;" parent="NP0mH-hWLjlgino4Q2RM-1" vertex="1">
          <mxGeometry x="878.5" y="256" width="120" height="60" as="geometry" />
        </mxCell>
        <mxCell id="NP0mH-hWLjlgino4Q2RM-47" value="" style="edgeStyle=orthogonalEdgeStyle;rounded=0;orthogonalLoop=1;jettySize=auto;html=1;" parent="NP0mH-hWLjlgino4Q2RM-1" source="NP0mH-hWLjlgino4Q2RM-44" target="NP0mH-hWLjlgino4Q2RM-46" edge="1">
          <mxGeometry relative="1" as="geometry" />
        </mxCell>
        <mxCell id="NP0mH-hWLjlgino4Q2RM-50" value="yes" style="text;html=1;strokeColor=none;fillColor=none;align=center;verticalAlign=middle;whiteSpace=wrap;rounded=0;" parent="NP0mH-hWLjlgino4Q2RM-1" vertex="1">
          <mxGeometry x="934" y="470" width="40" height="20" as="geometry" />
        </mxCell>
        <mxCell id="NP0mH-hWLjlgino4Q2RM-55" value="End" style="rounded=1;whiteSpace=wrap;html=1;" parent="NP0mH-hWLjlgino4Q2RM-1" vertex="1">
          <mxGeometry x="888.5" y="740" width="100" height="50" as="geometry" />
        </mxCell>
        <mxCell id="NP0mH-hWLjlgino4Q2RM-54" value="" style="edgeStyle=orthogonalEdgeStyle;rounded=0;orthogonalLoop=1;jettySize=auto;html=1;" parent="NP0mH-hWLjlgino4Q2RM-1" source="NP0mH-hWLjlgino4Q2RM-51" target="NP0mH-hWLjlgino4Q2RM-55" edge="1">
          <mxGeometry relative="1" as="geometry">
            <mxPoint x="938.5" y="770" as="targetPoint" />
          </mxGeometry>
        </mxCell>
        <mxCell id="NP0mH-hWLjlgino4Q2RM-58" value="CEO Comments" style="shape=note;whiteSpace=wrap;html=1;backgroundOutline=1;darkOpacity=0.05;" parent="NP0mH-hWLjlgino4Q2RM-1" vertex="1">
          <mxGeometry x="711" y="345" width="80" height="100" as="geometry" />
        </mxCell>
        <mxCell id="NP0mH-hWLjlgino4Q2RM-60" value="" style="edgeStyle=orthogonalEdgeStyle;rounded=0;orthogonalLoop=1;jettySize=auto;html=1;entryX=0;entryY=0;entryDx=80;entryDy=65;entryPerimeter=0;" parent="NP0mH-hWLjlgino4Q2RM-1" source="NP0mH-hWLjlgino4Q2RM-46" target="NP0mH-hWLjlgino4Q2RM-58" edge="1">
          <mxGeometry relative="1" as="geometry">
            <mxPoint x="798.5" y="410" as="targetPoint" />
          </mxGeometry>
        </mxCell>
        <mxCell id="NP0mH-hWLjlgino4Q2RM-63" value="no" style="text;html=1;strokeColor=none;fillColor=none;align=center;verticalAlign=middle;whiteSpace=wrap;rounded=0;" parent="NP0mH-hWLjlgino4Q2RM-1" vertex="1">
          <mxGeometry x="814" y="386" width="40" height="20" as="geometry" />
        </mxCell>
        <mxCell id="NP0mH-hWLjlgino4Q2RM-16" value="" style="edgeStyle=orthogonalEdgeStyle;rounded=0;orthogonalLoop=1;jettySize=auto;html=1;" parent="1" source="NP0mH-hWLjlgino4Q2RM-12" target="NP0mH-hWLjlgino4Q2RM-15" edge="1">
          <mxGeometry relative="1" as="geometry" />
        </mxCell>
        <mxCell id="NP0mH-hWLjlgino4Q2RM-12" value="HoD procurement presents proposed disposal plan to the council&#39;s management committee and incorporates their amendments. Committee drafts recommendations to the CEO" style="whiteSpace=wrap;html=1;rounded=0;" parent="1" vertex="1">
          <mxGeometry x="120" y="670" width="200" height="96.38" as="geometry" />
        </mxCell>
        <mxCell id="NP0mH-hWLjlgino4Q2RM-13" value="" style="edgeStyle=orthogonalEdgeStyle;rounded=0;orthogonalLoop=1;jettySize=auto;html=1;" parent="1" source="NP0mH-hWLjlgino4Q2RM-10" target="NP0mH-hWLjlgino4Q2RM-12" edge="1">
          <mxGeometry relative="1" as="geometry" />
        </mxCell>
        <mxCell id="NP0mH-hWLjlgino4Q2RM-27" value="" style="edgeStyle=orthogonalEdgeStyle;rounded=0;orthogonalLoop=1;jettySize=auto;html=1;entryX=0.5;entryY=1;entryDx=0;entryDy=0;exitX=0.5;exitY=1;exitDx=0;exitDy=0;exitPerimeter=0;" parent="1" source="NP0mH-hWLjlgino4Q2RM-28" target="NP0mH-hWLjlgino4Q2RM-12" edge="1">
          <mxGeometry relative="1" as="geometry">
            <mxPoint x="701" y="600" as="sourcePoint" />
            <mxPoint x="686" y="680" as="targetPoint" />
            <Array as="points">
              <mxPoint x="671" y="790" />
              <mxPoint x="220" y="790" />
            </Array>
          </mxGeometry>
        </mxCell>
        <mxCell id="NP0mH-hWLjlgino4Q2RM-29" value="no" style="text;html=1;strokeColor=none;fillColor=none;align=center;verticalAlign=middle;whiteSpace=wrap;rounded=0;" parent="1" vertex="1">
          <mxGeometry x="576" y="551" width="40" height="20" as="geometry" />
        </mxCell>
        <mxCell id="NP0mH-hWLjlgino4Q2RM-33" value="" style="edgeStyle=orthogonalEdgeStyle;rounded=0;orthogonalLoop=1;jettySize=auto;html=1;" parent="1" source="NP0mH-hWLjlgino4Q2RM-30" target="NP0mH-hWLjlgino4Q2RM-32" edge="1">
          <mxGeometry relative="1" as="geometry" />
        </mxCell>
        <mxCell id="NP0mH-hWLjlgino4Q2RM-36" value="" style="edgeStyle=orthogonalEdgeStyle;rounded=0;orthogonalLoop=1;jettySize=auto;html=1;" parent="1" source="NP0mH-hWLjlgino4Q2RM-30" target="NP0mH-hWLjlgino4Q2RM-37" edge="1">
          <mxGeometry relative="1" as="geometry">
            <mxPoint x="656" y="296" as="targetPoint" />
          </mxGeometry>
        </mxCell>
        <mxCell id="NP0mH-hWLjlgino4Q2RM-30" value="&lt;div&gt;Board&lt;/div&gt;&lt;div&gt;concurs?&lt;/div&gt;" style="rhombus;whiteSpace=wrap;html=1;" parent="1" vertex="1">
          <mxGeometry x="471" y="256" width="110" height="80" as="geometry" />
        </mxCell>
        <mxCell id="NP0mH-hWLjlgino4Q2RM-31" value="" style="edgeStyle=orthogonalEdgeStyle;rounded=0;orthogonalLoop=1;jettySize=auto;html=1;" parent="1" source="NP0mH-hWLjlgino4Q2RM-21" target="NP0mH-hWLjlgino4Q2RM-30" edge="1">
          <mxGeometry relative="1" as="geometry" />
        </mxCell>
        <mxCell id="NP0mH-hWLjlgino4Q2RM-43" value="" style="edgeStyle=orthogonalEdgeStyle;rounded=0;orthogonalLoop=1;jettySize=auto;html=1;" parent="1" source="NP0mH-hWLjlgino4Q2RM-40" target="NP0mH-hWLjlgino4Q2RM-42" edge="1">
          <mxGeometry relative="1" as="geometry" />
        </mxCell>
        <mxCell id="NP0mH-hWLjlgino4Q2RM-40" value="Items are assembled for disposal" style="shape=process;whiteSpace=wrap;html=1;backgroundOutline=1;" parent="1" vertex="1">
          <mxGeometry x="666" y="150" width="120" height="60" as="geometry" />
        </mxCell>
        <mxCell id="NP0mH-hWLjlgino4Q2RM-41" value="" style="edgeStyle=orthogonalEdgeStyle;rounded=0;orthogonalLoop=1;jettySize=auto;html=1;" parent="1" source="NP0mH-hWLjlgino4Q2RM-32" target="NP0mH-hWLjlgino4Q2RM-40" edge="1">
          <mxGeometry relative="1" as="geometry" />
        </mxCell>
        <mxCell id="NP0mH-hWLjlgino4Q2RM-45" value="" style="edgeStyle=orthogonalEdgeStyle;rounded=0;orthogonalLoop=1;jettySize=auto;html=1;" parent="1" source="NP0mH-hWLjlgino4Q2RM-42" target="NP0mH-hWLjlgino4Q2RM-44" edge="1">
          <mxGeometry relative="1" as="geometry" />
        </mxCell>
        <mxCell id="NP0mH-hWLjlgino4Q2RM-42" value="Disposal committee Inspects and verifies disposal items (Board of survey) and submits report to HOD Procurement" style="whiteSpace=wrap;html=1;" parent="1" vertex="1">
          <mxGeometry x="866" y="140" width="165" height="80" as="geometry" />
        </mxCell>
        <mxCell id="NP0mH-hWLjlgino4Q2RM-62" value="" style="edgeStyle=orthogonalEdgeStyle;rounded=0;orthogonalLoop=1;jettySize=auto;html=1;entryX=0;entryY=0.5;entryDx=0;entryDy=0;" parent="1" source="NP0mH-hWLjlgino4Q2RM-58" target="NP0mH-hWLjlgino4Q2RM-42" edge="1">
          <mxGeometry relative="1" as="geometry">
            <mxPoint x="761" y="255" as="targetPoint" />
            <Array as="points">
              <mxPoint x="761" y="290" />
              <mxPoint x="834" y="290" />
              <mxPoint x="834" y="180" />
            </Array>
          </mxGeometry>
        </mxCell>
        <mxCell id="NP0mH-hWLjlgino4Q2RM-64" value="no" style="text;html=1;strokeColor=none;fillColor=none;align=center;verticalAlign=middle;whiteSpace=wrap;rounded=0;" parent="1" vertex="1">
          <mxGeometry x="432" y="277" width="40" height="20" as="geometry" />
        </mxCell>
        <mxCell id="0G9J744BiatkqVIwCBiQ-1" value="CONTRACT MANAGEMENT" style="swimlane;" vertex="1" parent="1">
          <mxGeometry x="50" y="860" width="1150" height="810" as="geometry" />
        </mxCell>
        <mxCell id="0G9J744BiatkqVIwCBiQ-2" value="Start" style="rounded=1;whiteSpace=wrap;html=1;" vertex="1" parent="0G9J744BiatkqVIwCBiQ-1">
          <mxGeometry x="185" y="40" width="90" height="50" as="geometry" />
        </mxCell>
        <mxCell id="0G9J744BiatkqVIwCBiQ-3" value="HoD Procurement prepares draft contract document after lapse of 14 days of notification of award and sends to successful bidder for concurrence" style="rounded=0;whiteSpace=wrap;html=1;" vertex="1" parent="0G9J744BiatkqVIwCBiQ-1">
          <mxGeometry x="125" y="160" width="210" height="80" as="geometry" />
        </mxCell>
        <mxCell id="0G9J744BiatkqVIwCBiQ-4" value="" style="edgeStyle=orthogonalEdgeStyle;rounded=0;orthogonalLoop=1;jettySize=auto;html=1;" edge="1" parent="0G9J744BiatkqVIwCBiQ-1" source="0G9J744BiatkqVIwCBiQ-2" target="0G9J744BiatkqVIwCBiQ-3">
          <mxGeometry relative="1" as="geometry">
            <mxPoint x="230" y="165" as="targetPoint" />
          </mxGeometry>
        </mxCell>
        <mxCell id="0G9J744BiatkqVIwCBiQ-5" value="HoD Procurement forwards draft contract to CEO for review" style="whiteSpace=wrap;html=1;rounded=0;" vertex="1" parent="0G9J744BiatkqVIwCBiQ-1">
          <mxGeometry x="170" y="290" width="120" height="70" as="geometry" />
        </mxCell>
        <mxCell id="0G9J744BiatkqVIwCBiQ-6" value="" style="edgeStyle=orthogonalEdgeStyle;rounded=0;orthogonalLoop=1;jettySize=auto;html=1;" edge="1" parent="0G9J744BiatkqVIwCBiQ-1" source="0G9J744BiatkqVIwCBiQ-3" target="0G9J744BiatkqVIwCBiQ-5">
          <mxGeometry relative="1" as="geometry" />
        </mxCell>
        <mxCell id="0G9J744BiatkqVIwCBiQ-7" value="HoD procurement incorporates CEOs recommendations into final contract and forwards to the successful bidder for review and concurrence" style="whiteSpace=wrap;html=1;rounded=0;" vertex="1" parent="0G9J744BiatkqVIwCBiQ-1">
          <mxGeometry x="130" y="420" width="200" height="80" as="geometry" />
        </mxCell>
        <mxCell id="0G9J744BiatkqVIwCBiQ-8" value="" style="edgeStyle=orthogonalEdgeStyle;rounded=0;orthogonalLoop=1;jettySize=auto;html=1;" edge="1" parent="0G9J744BiatkqVIwCBiQ-1" source="0G9J744BiatkqVIwCBiQ-5" target="0G9J744BiatkqVIwCBiQ-7">
          <mxGeometry relative="1" as="geometry" />
        </mxCell>
        <mxCell id="0G9J744BiatkqVIwCBiQ-9" value="Contract is signed by the bidder and CEO" style="whiteSpace=wrap;html=1;rounded=0;" vertex="1" parent="0G9J744BiatkqVIwCBiQ-1">
          <mxGeometry x="170" y="551" width="120" height="69" as="geometry" />
        </mxCell>
        <mxCell id="0G9J744BiatkqVIwCBiQ-10" value="" style="edgeStyle=orthogonalEdgeStyle;rounded=0;orthogonalLoop=1;jettySize=auto;html=1;" edge="1" parent="0G9J744BiatkqVIwCBiQ-1" source="0G9J744BiatkqVIwCBiQ-7" target="0G9J744BiatkqVIwCBiQ-9">
          <mxGeometry relative="1" as="geometry" />
        </mxCell>
        <mxCell id="0G9J744BiatkqVIwCBiQ-11" value="CEO appoints Contract implementation Committee to monitor the contract implementation" style="whiteSpace=wrap;html=1;rounded=0;" vertex="1" parent="0G9J744BiatkqVIwCBiQ-1">
          <mxGeometry x="435" y="545.5" width="140" height="80" as="geometry" />
        </mxCell>
        <mxCell id="0G9J744BiatkqVIwCBiQ-12" value="" style="edgeStyle=orthogonalEdgeStyle;rounded=0;orthogonalLoop=1;jettySize=auto;html=1;" edge="1" parent="0G9J744BiatkqVIwCBiQ-1" source="0G9J744BiatkqVIwCBiQ-9" target="0G9J744BiatkqVIwCBiQ-11">
          <mxGeometry relative="1" as="geometry" />
        </mxCell>
        <mxCell id="0G9J744BiatkqVIwCBiQ-13" value="&lt;div&gt;CEO&lt;/div&gt;&lt;div&gt;Approves&lt;/div&gt;" style="rhombus;whiteSpace=wrap;html=1;rounded=0;" vertex="1" parent="0G9J744BiatkqVIwCBiQ-1">
          <mxGeometry x="731" y="530" width="100" height="80" as="geometry" />
        </mxCell>
        <mxCell id="0G9J744BiatkqVIwCBiQ-14" value="CEO forwards to Finance for payment" style="whiteSpace=wrap;html=1;rounded=0;" vertex="1" parent="0G9J744BiatkqVIwCBiQ-1">
          <mxGeometry x="721" y="670" width="120" height="60" as="geometry" />
        </mxCell>
        <mxCell id="0G9J744BiatkqVIwCBiQ-15" value="" style="edgeStyle=orthogonalEdgeStyle;rounded=0;orthogonalLoop=1;jettySize=auto;html=1;" edge="1" parent="0G9J744BiatkqVIwCBiQ-1" source="0G9J744BiatkqVIwCBiQ-13" target="0G9J744BiatkqVIwCBiQ-14">
          <mxGeometry relative="1" as="geometry" />
        </mxCell>
        <mxCell id="0G9J744BiatkqVIwCBiQ-16" value="yes" style="text;html=1;strokeColor=none;fillColor=none;align=center;verticalAlign=middle;whiteSpace=wrap;rounded=0;" vertex="1" parent="0G9J744BiatkqVIwCBiQ-1">
          <mxGeometry x="777" y="625.5" width="40" height="20" as="geometry" />
        </mxCell>
        <mxCell id="0G9J744BiatkqVIwCBiQ-17" value="no" style="text;html=1;strokeColor=none;fillColor=none;align=center;verticalAlign=middle;whiteSpace=wrap;rounded=0;" vertex="1" parent="0G9J744BiatkqVIwCBiQ-1">
          <mxGeometry x="860" y="551" width="40" height="20" as="geometry" />
        </mxCell>
        <mxCell id="0G9J744BiatkqVIwCBiQ-18" value="CEO recommendations " style="shape=note;whiteSpace=wrap;html=1;backgroundOutline=1;darkOpacity=0.05;" vertex="1" parent="0G9J744BiatkqVIwCBiQ-1">
          <mxGeometry x="920" y="520" width="110" height="100" as="geometry" />
        </mxCell>
        <mxCell id="0G9J744BiatkqVIwCBiQ-19" value="" style="edgeStyle=orthogonalEdgeStyle;rounded=0;orthogonalLoop=1;jettySize=auto;html=1;entryX=0;entryY=0.5;entryDx=0;entryDy=0;entryPerimeter=0;" edge="1" parent="0G9J744BiatkqVIwCBiQ-1" source="0G9J744BiatkqVIwCBiQ-13" target="0G9J744BiatkqVIwCBiQ-18">
          <mxGeometry relative="1" as="geometry">
            <mxPoint x="911" y="570" as="targetPoint" />
          </mxGeometry>
        </mxCell>
        <mxCell id="0G9J744BiatkqVIwCBiQ-20" value="End" style="rounded=1;whiteSpace=wrap;html=1;" vertex="1" parent="0G9J744BiatkqVIwCBiQ-1">
          <mxGeometry x="970" y="675" width="90" height="50" as="geometry" />
        </mxCell>
        <mxCell id="0G9J744BiatkqVIwCBiQ-21" value="" style="edgeStyle=orthogonalEdgeStyle;rounded=0;orthogonalLoop=1;jettySize=auto;html=1;entryX=0;entryY=0.5;entryDx=0;entryDy=0;" edge="1" parent="0G9J744BiatkqVIwCBiQ-1" source="0G9J744BiatkqVIwCBiQ-14" target="0G9J744BiatkqVIwCBiQ-20">
          <mxGeometry relative="1" as="geometry">
            <mxPoint x="921" y="700" as="targetPoint" />
          </mxGeometry>
        </mxCell>
        <mxCell id="0G9J744BiatkqVIwCBiQ-22" value="" style="edgeStyle=orthogonalEdgeStyle;rounded=0;orthogonalLoop=1;jettySize=auto;html=1;" edge="1" parent="1" source="0G9J744BiatkqVIwCBiQ-23" target="0G9J744BiatkqVIwCBiQ-26">
          <mxGeometry relative="1" as="geometry" />
        </mxCell>
        <mxCell id="0G9J744BiatkqVIwCBiQ-23" value="Implementation committee holds meetings based on the agreed timelines and compiles contract implementation reports for the accounting officer (CEO)" style="whiteSpace=wrap;html=1;rounded=0;" vertex="1" parent="1">
          <mxGeometry x="450" y="1245.5" width="210" height="84.5" as="geometry" />
        </mxCell>
        <mxCell id="0G9J744BiatkqVIwCBiQ-24" value="" style="edgeStyle=orthogonalEdgeStyle;rounded=0;orthogonalLoop=1;jettySize=auto;html=1;" edge="1" parent="1" source="0G9J744BiatkqVIwCBiQ-11" target="0G9J744BiatkqVIwCBiQ-23">
          <mxGeometry relative="1" as="geometry" />
        </mxCell>
        <mxCell id="0G9J744BiatkqVIwCBiQ-25" value="" style="edgeStyle=orthogonalEdgeStyle;rounded=0;orthogonalLoop=1;jettySize=auto;html=1;" edge="1" parent="1" source="0G9J744BiatkqVIwCBiQ-26" target="0G9J744BiatkqVIwCBiQ-28">
          <mxGeometry relative="1" as="geometry" />
        </mxCell>
        <mxCell id="0G9J744BiatkqVIwCBiQ-26" value="At the end of the implementation the project manager sends a completion certificate to the CEO" style="whiteSpace=wrap;html=1;rounded=0;" vertex="1" parent="1">
          <mxGeometry x="470" y="1090" width="170" height="80" as="geometry" />
        </mxCell>
        <mxCell id="0G9J744BiatkqVIwCBiQ-27" value="" style="edgeStyle=orthogonalEdgeStyle;rounded=0;orthogonalLoop=1;jettySize=auto;html=1;" edge="1" parent="1" source="0G9J744BiatkqVIwCBiQ-28" target="0G9J744BiatkqVIwCBiQ-30">
          <mxGeometry relative="1" as="geometry" />
        </mxCell>
        <mxCell id="0G9J744BiatkqVIwCBiQ-28" value="The CEO directs the implementation committee to Inspect the status" style="whiteSpace=wrap;html=1;rounded=0;" vertex="1" parent="1">
          <mxGeometry x="761" y="1090" width="140" height="80" as="geometry" />
        </mxCell>
        <mxCell id="0G9J744BiatkqVIwCBiQ-29" value="" style="edgeStyle=orthogonalEdgeStyle;rounded=0;orthogonalLoop=1;jettySize=auto;html=1;" edge="1" parent="1" source="0G9J744BiatkqVIwCBiQ-30" target="0G9J744BiatkqVIwCBiQ-13">
          <mxGeometry relative="1" as="geometry" />
        </mxCell>
        <mxCell id="0G9J744BiatkqVIwCBiQ-30" value="Implementation committee prepares contract completion report and forwards to CEO for approval" style="whiteSpace=wrap;html=1;rounded=0;" vertex="1" parent="1">
          <mxGeometry x="751" y="1250" width="160" height="80" as="geometry" />
        </mxCell>
        <mxCell id="0G9J744BiatkqVIwCBiQ-31" value="" style="edgeStyle=orthogonalEdgeStyle;rounded=0;orthogonalLoop=1;jettySize=auto;html=1;entryX=0.5;entryY=0;entryDx=0;entryDy=0;" edge="1" parent="1" source="0G9J744BiatkqVIwCBiQ-18" target="0G9J744BiatkqVIwCBiQ-26">
          <mxGeometry relative="1" as="geometry">
            <mxPoint x="1010" y="1280" as="targetPoint" />
            <Array as="points">
              <mxPoint x="1000" y="1050" />
              <mxPoint x="555" y="1050" />
            </Array>
          </mxGeometry>
        </mxCell>
      </root>
    </mxGraphModel>
  </diagram>
</mxfile>
